Coordinates
version=1
nRows=38
nColumns=12
inDegrees=yes

Units are S.I. units (second, meters, Newtons, ...)
Angles are in degrees

endheader
time	SC_y	SC_z	SC_x	AC_y	AC_z	AC_x	GH_y	GH_z	GH_yy	EL_x	PS_y
       0.0              -22.96          15.31          12.04          60.22          -16.4          4.953          26.21          40.24         -52.68          45.42          117.0
   0.03003              -22.96          15.31          12.05          60.22          -16.4          4.955          26.23          40.25         -52.66          45.43          117.0
   0.06006              -22.96          15.31          12.05          60.22         -16.39          4.957          26.25          40.25         -52.64          45.43          117.0
   0.09009              -22.96          15.31          12.06          60.22         -16.39          4.959          26.27          40.25         -52.62          45.43          117.0
    0.1201              -22.96          15.31          12.07          60.22         -16.39           4.96          26.29          40.25          -52.6          45.44          117.0
    0.1501              -22.95           15.3          12.07          60.21         -16.39          4.963          26.32          40.25         -52.58          45.44          117.0
    0.1802              -22.95           15.3          12.08          60.21         -16.39          4.965          26.34          40.25         -52.56          45.45          117.0
    0.2102              -22.95           15.3          12.09          60.21         -16.39          4.967          26.37          40.26         -52.53          45.45          117.0
    0.2402              -22.95           15.3           12.1          60.21         -16.39           4.97           26.4          40.26         -52.51          45.45          117.1
    0.2703              -22.95           15.3          12.11           60.2         -16.39          4.972          26.43          40.26         -52.48          45.46          117.1
    0.3003              -22.95           15.3          12.11           60.2         -16.38          4.975          26.46          40.26         -52.45          45.47          117.1
    0.3303              -22.94           15.3          12.13           60.2         -16.38          4.978          26.49          40.27         -52.42          45.47          117.1
    0.3604              -22.94          15.29          12.14          60.19         -16.38          4.982          26.53          40.27         -52.38          45.48          117.1
    0.3904              -22.94          15.29          12.15          60.19         -16.38          4.985          26.57          40.27         -52.34          45.48          117.1
    0.4204              -22.94          15.29          12.16          60.18         -16.38          4.989          26.62          40.28          -52.3          45.49          117.1
    0.4504              -22.93          15.29          12.18          60.18         -16.37          4.994          26.67          40.28         -52.25           45.5          117.1
    0.4805              -22.93          15.28          12.19          60.17         -16.37          4.998          26.72          40.28         -52.21          45.51          117.1
    0.5105              -22.93          15.28          12.21          60.17         -16.37          5.003          26.78          40.29         -52.15          45.52          117.1
    0.5405              -22.92          15.28          12.23          60.16         -16.37          5.009          26.84          40.29         -52.09          45.53          117.1
    0.5706              -22.92          15.28          12.25          60.16         -16.36          5.015          26.91           40.3         -52.03          45.54          117.1
    0.6006              -22.91          15.27          12.27          60.15         -16.36          5.021          26.98          40.31         -51.96          45.55          117.1
    0.6306              -22.91          15.27          12.29          60.14         -16.36          5.029          27.06          40.31         -51.88          45.57          117.1
    0.6606               -22.9          15.26          12.32          60.13         -16.35          5.037          27.15          40.32          -51.8          45.58          117.1
    0.6907               -22.9          15.26          12.35          60.12         -16.35          5.046          27.26          40.33          -51.7           45.6          117.1
    0.7207              -22.89          15.25          12.38          60.11         -16.34          5.056          27.37          40.34          -51.6          45.62          117.1
    0.7507              -22.88          15.25          12.42           60.1         -16.34          5.067          27.49          40.35         -51.48          45.64          117.1
    0.7808              -22.87          15.24          12.46          60.08         -16.33          5.079          27.63          40.36         -51.35          45.66          117.2
    0.8108              -22.86          15.23          12.51          60.07         -16.32          5.093          27.79          40.37          -51.2          45.69          117.2
    0.8408              -22.85          15.22          12.56          60.05         -16.31          5.109          27.97          40.38         -51.04          45.72          117.2
    0.8708              -22.84          15.21          12.62          60.03          -16.3          5.127          28.17           40.4         -50.85          45.75          117.2
    0.9009              -22.83           15.2          12.69          60.01         -16.29          5.147           28.4          40.42         -50.63          45.79          117.2
    0.9309              -22.81          15.19          12.76          59.98         -16.28          5.171          28.67          40.44         -50.38          45.83          117.2
    0.9609              -22.79          15.17          12.85          59.95         -16.27          5.198          28.97          40.46          -50.1          45.88          117.3
     0.991              -22.77          15.15          12.96          59.92         -16.25           5.23          29.33          40.49         -49.76          45.94          117.3
     1.021              -22.74          15.13          13.08          59.88         -16.23          5.266          29.74          40.53         -49.37          46.01          117.3
     1.051              -22.71          15.11          13.22          59.83         -16.21           5.31          30.23          40.56         -48.92           46.1          117.4
     1.081              -22.68          15.08          13.39          59.77         -16.18          5.362          30.82          40.61         -48.37          46.19          117.4
     1.111              -22.64          15.04           13.6          59.71         -16.14          5.424          31.52          40.67         -47.72          46.31          117.5
